# xmcd
#
# Track frame offsets: 
#        150
#        15255
#        32202
#        44485
#        58865
#        69355
#        85060
#        98767
#        112302
#        129192
#        142290
#        160087
#
# Disc length: 2331 seconds
#
# Revision: 1
# Processed by: cddbd v1.5.2PL0 Copyright (c) Steve Scherf et al.
# Submitted via: ExactAudioCopy v1.1
#
DISCID=a109190c
DTITLE=Allen Frizzell - A Piece Of My Heart
DYEAR=1988
DGENRE=Country
TTITLE0=If I Was You
TTITLE1=Through His Eyes
TTITLE2=She Layed It On The Table
TTITLE3=Making Plans For One
TTITLE4=Right Way To Do Her Wrong
TTITLE5=Nobody But Her
TTITLE6=You Never Know How Good You Got It
TTITLE7=Photograph
TTITLE8=Over Hurt And Under Loved
TTITLE9=Sweet Sweet Rain
TTITLE10=Second Chances
TTITLE11=Piece Of My Heart
EXTD=
EXTT0=
EXTT1=
EXTT2=
EXTT3=
EXTT4=
EXTT5=
EXTT6=
EXTT7=
EXTT8=
EXTT9=
EXTT10=
EXTT11=
PLAYORDER=
